<svg width="120" height="53" viewBox="0 0 120 53" fill="none" xmlns="http://www.w3.org/2000/svg">
<path d="M7.1728 31.604H0L11.5776 0.433594H16.1147L15.4769 6.34273L7.1728 31.604ZM22.072 25.394H5.53605V19.9542H22.06V25.394H22.072ZM13.9484 6.34273L13.2384 0.433594H17.7996L29.4494 31.604H22.2766L13.9484 6.34273Z" fill="#0B0B0C"/>
<path d="M48.6115 23.3838C48.6115 22.6858 48.4671 22.072 48.1662 21.5665C47.8653 21.049 47.2877 20.5676 46.4452 20.0983C45.5907 19.6289 44.3391 19.1355 42.6903 18.6059C41.2943 18.1486 39.9584 17.6311 38.6947 17.0534C37.4311 16.4758 36.3118 15.8018 35.349 15.0316C34.3742 14.2614 33.616 13.3587 33.0624 12.3358C32.5088 11.3128 32.232 10.1093 32.232 8.73733C32.232 6.98024 32.7375 5.45181 33.7364 4.14C34.7353 2.8282 36.1072 1.81727 37.8523 1.09517C39.5974 0.373079 41.6072 0 43.8577 0C46.1684 0 48.1903 0.409184 49.9113 1.21552C51.6323 2.03389 52.9802 3.16518 53.9309 4.60936C54.8817 6.05355 55.351 7.7264 55.351 9.62792H48.6476C48.6476 8.78547 48.4671 8.03931 48.1181 7.38943C47.757 6.73954 47.2275 6.23408 46.5054 5.87303C45.7833 5.51198 44.8686 5.33146 43.7494 5.33146C42.6783 5.33146 41.7877 5.48791 41.0777 5.80082C40.3676 6.11373 39.8381 6.52291 39.477 7.04041C39.128 7.55792 38.9475 8.13559 38.9475 8.77344C38.9475 9.44739 39.1882 10.0251 39.6575 10.5305C40.1269 11.036 40.8129 11.4933 41.7155 11.9145C42.6181 12.3358 43.7013 12.745 44.989 13.1421C47.2636 13.8281 49.1651 14.6344 50.7056 15.5611C52.246 16.4878 53.4014 17.583 54.1837 18.8466C54.9659 20.1103 55.351 21.6026 55.351 23.3357C55.351 25.165 54.8817 26.7295 53.943 28.0293C53.0042 29.329 51.6924 30.3159 49.9955 31.0019C48.2986 31.6879 46.3008 32.0249 44.0021 32.0249C42.4376 32.0249 40.8971 31.8203 39.3928 31.4111C37.8884 31.0019 36.5285 30.3761 35.3009 29.5216C34.0854 28.6671 33.1106 27.596 32.3764 26.2962C31.6543 24.9965 31.2812 23.456 31.2812 21.6748H38.0208C38.0208 22.6015 38.1652 23.3838 38.442 24.0217C38.7188 24.6595 39.116 25.177 39.6455 25.5742C40.163 25.9713 40.7888 26.2601 41.535 26.4407C42.2691 26.6212 43.0995 26.7054 44.0021 26.7054C45.0732 26.7054 45.9518 26.561 46.6257 26.2722C47.2997 25.9833 47.8052 25.5742 48.1301 25.0687C48.455 24.5753 48.6115 24.0096 48.6115 23.3838Z" fill="#0B0B0C"/>
<path d="M67.4541 31.604H60.7266V0.433594H67.4541V31.604ZM80.9693 31.604H65.3239V26.1883H80.9693V31.604Z" fill="#0B0B0C"/>
<path d="M2.72946 46.2263L2.71742 44.9145H5.56969C6.27975 44.9145 6.84539 44.734 7.27865 44.385C7.7119 44.0359 7.92853 43.5425 7.92853 42.9047C7.92853 42.2187 7.73597 41.7252 7.33882 41.4123C6.94167 41.0994 6.33992 40.943 5.53359 40.943H3.0905V52.0271H1.42969V39.6191H5.50952C6.77318 39.6191 7.77208 39.8839 8.49417 40.4134C9.21627 40.943 9.56528 41.7854 9.56528 42.9408C9.56528 43.4583 9.43289 43.9156 9.16813 44.3248C8.90336 44.734 8.54231 45.0709 8.07295 45.3357C7.60359 45.6005 7.06202 45.769 6.4362 45.8412L5.85853 46.2383H2.72946V46.2263ZM2.06754 52.0512L3.01829 50.7153H5.79836C6.58062 50.7153 7.18237 50.5107 7.60359 50.1136C8.02481 49.7164 8.24144 49.1628 8.24144 48.4889C8.24144 48.0315 8.15719 47.6223 7.98871 47.2854C7.82022 46.9484 7.56748 46.6836 7.21847 46.5031C6.86946 46.3226 6.42417 46.2263 5.85853 46.2263H3.52376L3.53579 44.9145H6.74911L7.09812 45.3959C7.69987 45.444 8.20533 45.6125 8.61452 45.9014C9.03574 46.1902 9.34865 46.5512 9.56528 46.9965C9.78191 47.4418 9.89022 47.9353 9.89022 48.4648C9.89022 49.6322 9.51714 50.5228 8.77097 51.1365C8.02481 51.7503 7.02591 52.0512 5.78632 52.0512H2.06754Z" fill="black"/>
<path d="M21.4561 39.6191C22.3948 39.6191 23.1771 39.7636 23.827 40.0404C24.4769 40.3292 24.9703 40.7504 25.3073 41.304C25.6442 41.8576 25.8127 42.5436 25.8127 43.35C25.8127 43.9156 25.6924 44.4331 25.4637 44.9025C25.2351 45.3718 24.8981 45.769 24.4648 46.0939C24.0316 46.4189 23.5141 46.6716 22.9244 46.828L22.467 47.0086H18.6038L18.5918 45.6727H21.4922C22.0819 45.6727 22.5753 45.5644 22.9725 45.3598C23.3696 45.1552 23.6585 44.8663 23.851 44.5173C24.0436 44.1683 24.1399 43.7712 24.1399 43.35C24.1399 42.6279 23.9232 42.0502 23.502 41.6169C23.0808 41.1837 22.3948 40.967 21.4441 40.967H18.9889V52.0512H17.3281V39.6191H21.4561ZM21.5764 46.4189H23.3095L26.3663 51.9549V52.0632H24.5852L21.5764 46.4189Z" fill="black"/>
<path d="M33.623 52.0512H31.9141L36.6558 39.6191H37.751L37.7269 40.7143L33.623 52.0512ZM40.9643 48.8018H33.972V47.4659H40.9643V48.8018ZM37.053 40.7143L37.0409 39.6191H38.1241L42.8779 52.0512H41.1809L37.053 40.7143Z" fill="black"/>
<path d="M59.1224 52.0512H57.4616L51.2275 42.4353V52.0512H49.5547V39.6191H51.2155L57.4857 49.2591V39.6191H59.1224V52.0512Z" fill="black"/>
<path d="M68.7077 52.0512H67.0469V39.6191H68.7077V52.0512ZM67.8171 52.0512L67.8291 50.7153H70.4046C71.2832 50.7153 72.0293 50.5348 72.619 50.1617C73.2087 49.7886 73.654 49.2711 73.9549 48.5972C74.2558 47.9232 74.4002 47.1289 74.4002 46.2143V45.444C74.4002 44.4933 74.2558 43.6869 73.9549 43.025C73.654 42.3631 73.2208 41.8456 72.6431 41.4966C72.0654 41.1476 71.3674 40.967 70.549 40.967H67.7569V39.6312H70.549C71.6442 39.6312 72.595 39.8719 73.4254 40.3412C74.2437 40.8106 74.8936 41.4966 75.351 42.3631C75.8083 43.2416 76.0369 44.2766 76.0369 45.4681V46.2143C76.0369 47.4178 75.8083 48.4528 75.351 49.3193C74.8936 50.1858 74.2437 50.8597 73.4013 51.3411C72.5589 51.8105 71.56 52.0512 70.4166 52.0512H67.8171Z" fill="black"/>
<path d="M85.3171 52.0512H83.6562V39.6191H85.3171V52.0512Z" fill="black"/>
<path d="M102.884 52.0512H101.223L94.9889 42.4353V52.0512H93.3281V39.6191H94.9889L101.259 49.2591V39.6191H102.896V52.0512H102.884Z" fill="black"/>
<path d="M119.998 50.415C119.842 50.6316 119.601 50.8843 119.264 51.1732C118.927 51.45 118.47 51.7027 117.88 51.9073C117.29 52.1119 116.532 52.2202 115.593 52.2202C114.582 52.2202 113.692 51.9915 112.91 51.5222C112.127 51.0528 111.513 50.3789 111.068 49.5003C110.623 48.6218 110.406 47.5627 110.406 46.3231V45.3362C110.406 44.0966 110.599 43.0496 110.984 42.1711C111.369 41.2925 111.935 40.6186 112.681 40.1492C113.427 39.6798 114.33 39.4512 115.401 39.4512C116.351 39.4512 117.146 39.6197 117.796 39.9446C118.434 40.2695 118.939 40.7269 119.3 41.2925C119.661 41.8702 119.89 42.5201 119.998 43.2542H118.337C118.265 42.8089 118.121 42.3877 117.892 42.0266C117.675 41.6536 117.362 41.3527 116.953 41.1361C116.544 40.9074 116.027 40.7991 115.401 40.7991C114.63 40.7991 114.005 40.9796 113.511 41.3527C113.018 41.7258 112.657 42.2433 112.416 42.9172C112.175 43.5912 112.067 44.3975 112.067 45.3362V46.3351C112.067 47.2859 112.211 48.1043 112.512 48.7902C112.813 49.4762 113.222 49.9937 113.752 50.3548C114.281 50.7158 114.895 50.8964 115.605 50.8964C116.195 50.8964 116.664 50.8482 117.025 50.7519C117.386 50.6557 117.675 50.5353 117.88 50.3909C118.085 50.2465 118.241 50.1141 118.349 49.9937V47.1896H115.485V45.8658H119.998V50.415Z" fill="black"/>
</svg>
