<svg width="50" height="20" viewBox="0 0 50 20" fill="none" xmlns="http://www.w3.org/2000/svg">
<path d="M4.42923 19.5154H0L7.14919 0.267578H9.9509L9.55703 3.91649L4.42923 19.5154ZM13.6295 15.6807H3.41853V12.3216H13.6221V15.6807H13.6295ZM8.61321 3.91649L8.17475 0.267578H10.9913L18.1851 19.5154H13.7559L8.61321 3.91649Z" fill="#0B0B0C"/>
<path d="M30.014 14.4396C30.014 14.0085 29.9248 13.6295 29.739 13.3174C29.5532 12.9978 29.1965 12.7006 28.6763 12.4108C28.1487 12.1209 27.3758 11.8162 26.3576 11.4892C25.4956 11.2068 24.6707 10.8873 23.8904 10.5306C23.11 10.1738 22.4189 9.75768 21.8244 9.28205C21.2224 8.80643 20.7542 8.24906 20.4124 7.61738C20.0705 6.98569 19.8996 6.24253 19.8996 5.39533C19.8996 4.31032 20.2117 3.36651 20.8285 2.55647C21.4454 1.74642 22.2926 1.12217 23.3701 0.676273C24.4477 0.230377 25.6888 0 27.0785 0C28.5054 0 29.7539 0.252672 30.8166 0.750589C31.8793 1.25594 32.7117 1.95451 33.2988 2.8463C33.8858 3.73809 34.1757 4.77108 34.1757 5.94527H30.0363C30.0363 5.42506 29.9248 4.9643 29.7093 4.563C29.4863 4.16169 29.1594 3.84956 28.7135 3.62661C28.2676 3.40367 27.7028 3.29219 27.0116 3.29219C26.3502 3.29219 25.8003 3.3888 25.3618 3.58202C24.9233 3.77525 24.5964 4.02792 24.3734 4.34748C24.1579 4.66704 24.0464 5.02375 24.0464 5.41763C24.0464 5.8338 24.1951 6.19051 24.4849 6.50264C24.7747 6.81477 25.1983 7.09717 25.7557 7.35727C26.3131 7.61738 26.9819 7.87005 27.7771 8.11529C29.1817 8.5389 30.3558 9.03681 31.3071 9.60905C32.2583 10.1813 32.9718 10.8576 33.4548 11.6379C33.9379 12.4182 34.1757 13.3397 34.1757 14.4099C34.1757 15.5395 33.8858 16.5056 33.3062 17.3082C32.7265 18.1108 31.9165 18.7202 30.8686 19.1438C29.8208 19.5674 28.5871 19.7755 27.1677 19.7755C26.2016 19.7755 25.2503 19.6491 24.3214 19.3965C23.3924 19.1438 22.5527 18.7573 21.7947 18.2297C21.0441 17.702 20.4421 17.0406 19.9888 16.238C19.5429 15.4354 19.3125 14.4842 19.3125 13.3843H23.4742C23.4742 13.9565 23.5634 14.4396 23.7343 14.8335C23.9052 15.2273 24.1505 15.5469 24.4775 15.7921C24.797 16.0374 25.1835 16.2157 25.6442 16.3272C26.0975 16.4387 26.6103 16.4907 27.1677 16.4907C27.8291 16.4907 28.3716 16.4015 28.7878 16.2232C29.2039 16.0448 29.5161 15.7921 29.7167 15.48C29.9174 15.1753 30.014 14.826 30.014 14.4396Z" fill="#0B0B0C"/>
<path d="M41.6543 19.5154H37.5V0.267578H41.6543V19.5154ZM49.9999 19.5154H40.3389V16.1712H49.9999V19.5154Z" fill="#0B0B0C"/>
</svg>
